<?xml version="1.0" encoding="UTF-8"?>
<svg id="Layer_1" data-name="Layer 1" xmlns="http://www.w3.org/2000/svg" xmlns:xlink="http://www.w3.org/1999/xlink" viewBox="0 0 1800 1800">
  <defs>
    <style>
      .cls-1 {
        fill: none;
      }

      .cls-2 {
        clip-path: url(#clippath-1);
      }

      .cls-3 {
        clip-path: url(#clippath);
      }
    </style>
    <clipPath id="clippath">
      <path class="cls-1" d="M726.62,278.04l289.78-77.65c64.4-17.25,85.91,5.69,64.55,68.84l-166.99,493.63c-21.36,63.15-57.08,72.73-107.16,28.71l-391.43-344c-50.08-44.01-42.92-74.64,21.48-91.89l289.78-77.65ZM1524.04,730.17l77.65,289.78c17.25,64.4-5.69,85.91-68.84,64.55l-493.63-166.99c-63.15-21.36-72.73-57.08-28.71-107.16l344-391.43c44.01-50.08,74.64-42.92,91.89,21.48l77.65,289.78Z"/>
    </clipPath>
    <clipPath id="clippath-1">
      <path class="cls-1" d="M1063.38,1521.96l-289.78,77.65c-64.4,17.25-85.91-5.69-64.55-68.84l166.99-493.63c21.36-63.15,57.08-72.73,107.16-28.71l391.43,344c50.08,44.01,42.92,74.64-21.48,91.89l-289.78,77.65ZM760.78,872.49c63.15,21.36,72.73,57.08,28.71,107.16l-344,391.43c-44.01,50.08-74.64,42.92-91.89-21.48l-77.65-289.78-77.65-289.78c-17.25-64.4,5.69-85.91,68.84-64.55"/>
    </clipPath>
  </defs>
  <g class="cls-3">
    <image width="1742" height="858" transform="translate(201.29 83.76) scale(1.24)" xlink:href="bg_gradient_green.png"/>
  </g>
  <g class="cls-2">
    <image width="1754" height="878" transform="translate(-916.91 63.66) scale(1.93)" xlink:href="bg_gradient_blue.png"/>
  </g>
</svg>