<?xml version="1.0" encoding="UTF-8"?>
<svg id="Layer_1" data-name="Layer 1" xmlns="http://www.w3.org/2000/svg" xmlns:xlink="http://www.w3.org/1999/xlink" viewBox="0 0 5626 1800">
  <defs>
    <style>
      .cls-1 {
        fill: none;
      }

      .cls-2 {
        clip-path: url(#clippath-1);
      }

      .cls-3 {
        fill: #fff;
      }

      .cls-4 {
        clip-path: url(#clippath);
      }
    </style>
    <clipPath id="clippath">
      <path class="cls-1" d="M1025.94,285.86l289.78-77.65c64.4-17.25,85.91,5.69,64.55,68.84l-166.99,493.63c-21.36,63.15-57.08,72.73-107.16,28.71l-391.43-344c-50.08-44.01-42.92-74.64,21.48-91.89l289.78-77.65ZM1823.37,737.99l77.65,289.78c17.25,64.4-5.69,85.91-68.84,64.55l-493.63-166.99c-63.15-21.36-72.73-57.08-28.71-107.16l344-391.43c44.01-50.08,74.64-42.92,91.89,21.48l77.65,289.78Z"/>
    </clipPath>
    <clipPath id="clippath-1">
      <path class="cls-1" d="M1362.7,1529.78l-289.78,77.65c-64.4,17.25-85.91-5.69-64.55-68.84l166.99-493.63c21.36-63.15,57.08-72.73,107.16-28.71l391.43,344c50.08,44.01,42.92,74.64-21.48,91.89l-289.78,77.65ZM1060.1,880.31c63.15,21.36,72.73,57.08,28.71,107.16l-344,391.43c-44.01,50.08-74.64,42.92-91.89-21.48l-77.65-289.78-77.65-289.78c-17.25-64.4,5.69-85.91,68.84-64.55"/>
    </clipPath>
  </defs>
  <g>
    <path class="cls-3" d="M3134.07,1011.42c-69.57,8.98-74.05,15.71-74.05,81.91v94.25c0,39.27,1.12,76.3,6.73,106.59-69.57,15.71-160.45,40.39-254.7,40.39-254.7,0-409.54-158.21-409.54-383.73,0-236.75,192.99-378.12,417.39-378.12,114.45,0,198.6,22.44,233.38,28.05,2.24,41.51,7.85,109.96,16.83,180.65l-33.66,6.73c-26.93-95.37-59.47-135.76-130.16-159.33-25.81-8.98-71.81-14.59-104.35-14.59-171.67,0-282.75,117.81-282.75,323.14,0,178.4,92.01,355.68,309.68,355.68,38.15,0,72.93-7.85,95.37-19.07,23.56-13.46,38.15-25.81,38.15-71.81v-92.01c0-81.91-8.98-90.88-116.69-98.74v-32.54h288.36v32.54Z"/>
    <path class="cls-3" d="M3803.91,1139.33c-6.73,29.17-37.03,144.74-48.25,178.4h-545.3v-31.42c104.35-7.85,112.2-17.95,112.2-109.96v-443.2c0-99.86-12.34-105.47-96.49-113.32v-31.42h343.34c105.47,0,149.23-1.12,162.69-2.24,1.12,28.05,5.61,112.2,10.1,171.67l-33.66,5.61c-10.1-38.15-21.32-61.71-33.66-85.27-17.95-37.03-43.76-44.88-111.08-44.88h-106.59c-34.78,0-37.03,3.37-37.03,35.9v247.97h124.54c84.15,0,89.76-16.83,103.23-93.13h34.78v231.14h-34.78c-14.59-80.79-23.56-92.01-104.35-92.01h-123.42v223.28c0,78.54,24.68,85.27,80.79,86.4h104.35c68.44,0,79.66-10.1,104.35-39.27,21.32-23.56,44.88-69.57,60.59-103.23l33.66,8.98Z"/>
    <path class="cls-3" d="M4171.93,588.42c79.66,0,143.62,14.59,189.62,48.25,43.76,32.54,74.05,85.27,74.05,159.33,0,163.81-140.25,230.01-246.85,230.01-12.34,0-23.56-1.12-30.29-2.24l-77.42-20.2v175.04c0,94.25,7.85,96.49,111.08,107.71v31.42h-309.68v-31.42c96.49-10.1,100.98-16.83,100.98-109.96v-445.44c0-99.86-12.34-102.1-100.98-111.08v-31.42h289.48ZM4081.04,964.29c13.46,6.73,43.76,14.59,81.91,14.59,75.18,0,168.3-38.15,168.3-179.52,0-123.42-80.79-172.79-175.04-172.79-32.54,0-56.1,5.61-62.83,13.46-8.98,7.85-12.34,21.32-12.34,51.61v272.65Z"/>
    <path class="cls-3" d="M4857.49,1317.73v-31.42c72.93-8.98,81.91-20.2,66.2-62.83-14.59-43.76-37.03-99.86-60.59-170.55h-242.36c-17.95,50.49-34.78,94.25-50.49,140.25-24.68,72.93-8.98,81.91,83.03,93.13v31.42h-259.19v-31.42c70.69-8.98,88.64-16.83,127.91-117.81l232.26-589.06,35.91-6.73c70.69,191.87,148.11,403.93,218.79,598.04,35.9,97.62,46,106.59,125.67,115.57v31.42h-277.14ZM4745.28,719.69c-35.91,96.49-74.05,198.6-107.71,287.24h209.82l-102.1-287.24Z"/>
  </g>
  <g class="cls-4">
    <image width="1742" height="858" transform="translate(500.61 91.58) scale(1.24)" xlink:href="bg_gradient_green.png"/>
  </g>
  <g class="cls-2">
    <image width="1754" height="878" transform="translate(-617.58 71.48) scale(1.93)" xlink:href="bg_gradient_blue.png"/>
  </g>
</svg>